<?xml version="1.0" standalone="no"?><!DOCTYPE svg PUBLIC "-//W3C//DTD SVG 1.1//EN" "http://www.w3.org/Graphics/SVG/1.1/DTD/svg11.dtd"><svg t="1648196112758" class="icon" viewBox="0 0 1024 1024" version="1.1" xmlns="http://www.w3.org/2000/svg" p-id="4332" xmlns:xlink="http://www.w3.org/1999/xlink" width="200" height="200"><defs><style type="text/css">@font-face { font-family: feedback-iconfont; src: url("//at.alicdn.com/t/font_1031158_u69w8yhxdu.woff2?t=1630033759944") format("woff2"), url("//at.alicdn.com/t/font_1031158_u69w8yhxdu.woff?t=1630033759944") format("woff"), url("//at.alicdn.com/t/font_1031158_u69w8yhxdu.ttf?t=1630033759944") format("truetype"); }
</style></defs><path d="M890 120H134a70 70 0 0 0-70 70v500a70 70 0 0 0 70 70h756a70 70 0 0 0 70-70V190a70 70 0 0 0-70-70z m-10 520a40 40 0 0 1-40 40H712V448a40 40 0 0 0-80 0v232h-80V368a40 40 0 0 0-80 0v312h-80V512a40 40 0 0 0-80 0v168H184a40 40 0 0 1-40-40V240a40 40 0 0 1 40-40h656a40 40 0 0 1 40 40zM696 824H328a40 40 0 0 0 0 80h368a40 40 0 0 0 0-80z" fill="#999999" p-id="4333"></path></svg>